# xmcd
#
# Track frame offsets:
#	150
#	33617
#	72730
#	98167
#	123297
#	173520
#	186220
#	202587
#	212237
#	240152
#	278937
#	283537
#
# Disc length: 3895 seconds
#
# Revision: 1
# Processed by: cddbd v1.5.1PL2 Copyright (c) Steve Scherf et al.
# Submitted via: dBpowerAMP V4.0
#
DISCID=a90f350c
DTITLE=Premiata Forneria Marconi - 10 Anni Live 71-78 (Disc2)
DYEAR=1996
DGENRE=Progressive Rock
TTITLE0=Four Holes In The Ground
TTITLE1=Is My Face On Straight
TTITLE2=Cleveland Keyboard Jam
TTITLE3=MR. 9 Till 5
TTITLE4=Alta Loma 5 Till 9
TTITLE5=J. C. Violin Jam
TTITLE6=Classic Violin Solo
TTITLE7=William Tell Overture
TTITLE8=La Carrozza Di Hans
TTITLE9=Central Park Drum Solo
TTITLE10=Impressioni Di Settembre
TTITLE11=Poseidon
EXTD=
EXTT0=
EXTT1=
EXTT2=
EXTT3=
EXTT4=
EXTT5=
EXTT6=
EXTT7=
EXTT8=
EXTT9=
EXTT10=
EXTT11=
PLAYORDER=
